<svg width="490" height="106" viewBox="0 0 490 106" fill="none" xmlns="http://www.w3.org/2000/svg">
<path d="M45.26 104.96C16.42 104.96 0.18 83.12 0.18 52.88C0.18 22.78 18.52 0.939996 47.08 0.939996C72.98 0.939996 86.7 14.8 89.92 33.84H73.82C71.16 21.24 61.78 14.24 46.94 14.24C24.82 14.24 16.28 34.12 16.28 52.88C16.28 71.78 22.72 91.66 46.1 91.66C62.62 91.66 75.78 80.18 75.92 63.52H46.38V50.64H91.6V103H80.96L77.18 89.14H76.9C69.9 99.36 60.52 104.96 45.26 104.96ZM142.574 103H114.009V95.8711H106.88V88.7422H99.7516V74.4355H106.88V67.3066H121.138V60.1777H149.752V53H142.574V45.8711H121.138V53H99.7516V45.8711H106.88V38.7422H114.009V31.6133H149.752V38.7422H156.88V45.8711H164.009V103H149.752V95.8711H142.574V103ZM117.574 88.7422H142.574V81.6133H149.752V67.3066H142.574V74.4355H117.574V88.7422ZM184.525 103H170.267V3H184.525V103ZM233.605 103H205.041V95.8711H197.912V88.7422H190.783V74.4355H197.912V67.3066H212.17V60.1777H240.783V53H233.605V45.8711H212.17V53H190.783V45.8711H197.912V38.7422H205.041V31.6133H240.783V38.7422H247.912V45.8711H255.041V103H240.783V95.8711H233.605V103ZM208.605 88.7422H233.605V81.6133H240.783V67.3066H233.605V74.4355H208.605V88.7422ZM304.121 103H275.556V95.8711H268.427V88.7422H261.298V45.8711H268.427V38.7422H275.556V31.6133H304.121V38.7422H311.298V3H325.556V103H311.298V95.8711H304.121V103ZM282.685 88.7422H304.121V81.6133H311.298V53H304.121V45.8711H282.685V53H275.556V81.6133H282.685V88.7422ZM365.565 29.92C368.085 29.92 370.045 30.06 372.145 30.34V43.5C370.465 43.22 369.205 43.08 367.525 43.08C355.065 43.08 346.105 52.46 346.105 66.04V103H332.385V31.6H346.105V45.18H346.385C350.165 36.22 355.905 29.92 365.565 29.92ZM392.957 18.86H377.417V4.02H392.957V18.86ZM391.977 103H378.257V31.6H391.977V103ZM470.098 65.76C470.098 67.72 470.098 69.82 469.958 70.94H415.078C415.358 82.84 422.358 93.9 436.498 93.9C449.098 93.9 453.998 85.78 455.258 81.02H469.258C465.478 94.74 454.978 105.1 436.218 105.1C413.538 105.1 400.938 89 400.938 67.16C400.938 44.76 414.378 29.36 436.218 29.36C457.918 29.36 470.098 43.64 470.098 65.76ZM415.078 60.16H455.818C455.818 48.96 447.978 40.56 435.798 40.56C424.318 40.56 415.918 48.4 415.078 60.16ZM489.808 103H476.088V2.9H489.808V103Z" fill="#0657E0"/>
</svg>
