<svg width="27" height="28" viewBox="0 0 27 28" fill="none" xmlns="http://www.w3.org/2000/svg">
<g id="mingcute:ai-fill">
<g id="Group">
<path id="Vector" d="M10.2889 6.97046C10.9531 5.02691 13.6385 4.96805 14.4259 6.79388L14.4925 6.97157L15.3888 9.59259C15.5942 10.1937 15.9261 10.7437 16.3622 11.2057C16.7982 11.6676 17.3283 12.0306 17.9165 12.2702L18.1575 12.3602L20.7785 13.2554C22.7221 13.9195 22.781 16.6049 20.9562 17.3923L20.7785 17.459L18.1575 18.3552C17.5562 18.5605 17.006 18.8923 16.5438 19.3284C16.0817 19.7645 15.7185 20.2946 15.4788 20.883L15.3888 21.1228L14.4937 23.745C13.8295 25.6885 11.1441 25.7474 10.3578 23.9227L10.2889 23.745L9.39378 21.124C9.18852 20.5227 8.85666 19.9724 8.42061 19.5103C7.98455 19.0482 7.45444 18.685 6.86606 18.4452L6.62617 18.3552L4.00515 17.4601C2.06049 16.7959 2.00163 14.1105 3.82745 13.3242L4.00515 13.2554L6.62617 12.3602C7.22726 12.1548 7.77731 11.8229 8.23923 11.3868C8.70114 10.9508 9.06417 10.4208 9.30382 9.83248L9.39378 9.59259L10.2889 6.97046ZM21.2761 3.14111C21.4839 3.14111 21.6875 3.1994 21.8638 3.30934C22.0401 3.41928 22.182 3.57647 22.2734 3.76305L22.3267 3.89299L22.7154 5.03247L23.856 5.42118C24.0642 5.49192 24.2468 5.62288 24.3805 5.79746C24.5142 5.97205 24.5931 6.1824 24.6071 6.40186C24.6211 6.62132 24.5697 6.84 24.4593 7.0302C24.3489 7.2204 24.1846 7.37354 23.9871 7.47023L23.856 7.52354L22.7165 7.91225L22.3278 9.05284C22.257 9.261 22.1259 9.44343 21.9513 9.57703C21.7766 9.71063 21.5662 9.78938 21.3468 9.8033C21.1273 9.81721 20.9087 9.76567 20.7186 9.6552C20.5284 9.54474 20.3754 9.38032 20.2788 9.18278L20.2255 9.05284L19.8368 7.91336L18.6962 7.52465C18.488 7.45391 18.3054 7.32295 18.1717 7.14836C18.038 6.97378 17.9591 6.76343 17.9451 6.54397C17.9311 6.32451 17.9825 6.10583 18.0929 5.91563C18.2032 5.72543 18.3676 5.57228 18.5651 5.4756L18.6962 5.42229L19.8356 5.03358L20.2244 3.89299C20.2992 3.67356 20.4409 3.48308 20.6295 3.34824C20.8182 3.2134 21.0442 3.14097 21.2761 3.14111Z" fill="#AFBEFF"/>
</g>
</g>
</svg>
